<?xml version="1.0" encoding="utf-8"?>
<!-- Generator: Adobe Illustrator 16.0.0, SVG Export Plug-In . SVG Version: 6.00 Build 0)  -->
<!DOCTYPE svg PUBLIC "-//W3C//DTD SVG 1.1//EN" "http://www.w3.org/Graphics/SVG/1.1/DTD/svg11.dtd">
<svg version="1.1" id="Layer_1" xmlns="http://www.w3.org/2000/svg" xmlns:xlink="http://www.w3.org/1999/xlink" x="0px" y="0px"
	 width="50px" height="50px" viewBox="8.5 8.5 50 50" enable-background="new 8.5 8.5 50 50" xml:space="preserve">
<rect x="8.52" y="8.52" fill="#F8EC68" width="50" height="50"/>
<path fill="#1D1D1B" d="M29.978,47.097h5.616V33.503h3.748l0.496-4.683h-4.244l0.006-2.346c0-1.221,0.118-1.876,1.869-1.876h2.343
	v-4.686h-3.748c-4.501,0-6.085,2.273-6.085,6.094v2.813h-2.805v4.684h2.805V47.097z M33.505,58.491
	c-13.798,0-24.985-11.188-24.985-24.986C8.52,19.706,19.707,8.52,33.505,8.52c13.799,0,24.986,11.186,24.986,24.985
	C58.491,47.304,47.304,58.491,33.505,58.491z"/>
</svg>
