<?xml version="1.0" encoding="utf-8"?>
<!-- Generator: Adobe Illustrator 16.0.0, SVG Export Plug-In . SVG Version: 6.00 Build 0)  -->
<!DOCTYPE svg PUBLIC "-//W3C//DTD SVG 1.1//EN" "http://www.w3.org/Graphics/SVG/1.1/DTD/svg11.dtd">
<svg version="1.1" id="Layer_1" xmlns="http://www.w3.org/2000/svg" xmlns:xlink="http://www.w3.org/1999/xlink" x="0px" y="0px"
	 width="50px" height="49.992px" viewBox="8.5 8.504 50 49.992" enable-background="new 8.5 8.504 50 49.992" xml:space="preserve">
<rect x="8.52" y="8.52" fill="#F8EC68" width="50" height="50"/>
<path fill="#1D1D1B" d="M33.505,8.55C19.723,8.55,8.55,19.722,8.55,33.505c0,13.783,11.173,24.955,24.955,24.955
	S58.46,47.287,58.46,33.505C58.46,19.722,47.287,8.55,33.505,8.55z M48.78,34.737L48.78,34.737
	c-0.001,2.637-0.308,5.273-0.308,5.273s-0.297,2.246-1.213,3.233c-1.162,1.297-2.464,1.305-3.06,1.382
	c-4.276,0.326-10.695,0.338-10.695,0.338s-1.725-0.016-3.813-0.06v-5.671l9.548-5.729l-9.549-5.729v10.432h-0.001l0.003,6.697
	c-2.395-0.049-5.268-0.134-6.573-0.267c-0.679-0.136-2.205-0.098-3.368-1.393c-0.916-0.986-1.213-3.234-1.213-3.234
	s-0.306-2.635-0.306-5.274v-2.472c0-2.637,0.306-5.273,0.306-5.273s0.297-2.248,1.213-3.236c1.163-1.297,2.463-1.305,3.06-1.377
	c4.275-0.332,10.688-0.332,10.688-0.332h0.013c0,0,6.413,0,10.688,0.332c0.597,0.073,1.897,0.081,3.061,1.377
	c0.916,0.989,1.213,3.236,1.213,3.236s0.307,2.636,0.307,5.274V34.737z"/>
</svg>
