<?xml version="1.0" encoding="utf-8"?>
<!-- Generator: Adobe Illustrator 16.0.0, SVG Export Plug-In . SVG Version: 6.00 Build 0)  -->
<!DOCTYPE svg PUBLIC "-//W3C//DTD SVG 1.1//EN" "http://www.w3.org/Graphics/SVG/1.1/DTD/svg11.dtd">
<svg version="1.1" id="Layer_1" xmlns="http://www.w3.org/2000/svg" xmlns:xlink="http://www.w3.org/1999/xlink" x="0px" y="0px"
	 width="50.008px" height="50px" viewBox="8.496 8.5 50.008 50" enable-background="new 8.496 8.5 50.008 50" xml:space="preserve">
<rect x="8.52" y="8.52" fill="#F8EC68" width="50" height="50"/>
<path fill="#1D1D1B" d="M39.682,13.768c-4.412,1.605-7.201,5.744-6.882,10.277l0.107,1.748l-1.766-0.213
	c-6.422-0.819-12.035-3.602-16.801-8.279l-2.331-2.319l-0.598,1.712c-1.27,3.821-0.458,7.854,2.188,10.565
	c1.411,1.5,1.094,1.713-1.338,0.82c-0.849-0.284-1.59-0.498-1.663-0.391c-0.245,0.25,0.601,3.497,1.27,4.782
	c0.918,1.785,2.789,3.531,4.837,4.568l1.73,0.821l-2.047,0.034c-1.975,0-2.044,0.037-1.833,0.786c0.706,2.321,3.493,4.784,6.6,5.856
	l2.188,0.748l-1.904,1.141c-2.823,1.646-6.142,2.57-9.461,2.639c-1.59,0.036-2.896,0.18-2.896,0.288c0,0.355,4.307,2.353,6.813,3.14
	c7.518,2.32,16.448,1.318,23.155-2.642C43.812,47.029,48.576,41.426,50.8,36c1.199-2.888,2.402-8.171,2.402-10.704
	c0-1.644,0.105-1.857,2.082-3.818c1.165-1.142,2.256-2.392,2.472-2.748c0.352-0.679,0.315-0.679-1.484-0.072
	c-3,1.069-3.425,0.928-1.941-0.678c1.097-1.142,2.402-3.212,2.402-3.819c0-0.105-0.529,0.072-1.131,0.393
	c-0.635,0.357-2.047,0.893-3.106,1.212l-1.906,0.609l-1.728-1.18c-0.953-0.641-2.292-1.355-3.001-1.569
	C44.06,13.125,41.305,13.195,39.682,13.768z"/>
</svg>
